<svg width="15" height="18" viewBox="0 0 15 18" fill="none" xmlns="http://www.w3.org/2000/svg">
<path d="M7.33333 17.875C8.34167 17.875 9.16667 17.05 9.16667 16.0417H5.5C5.5 17.05 6.325 17.875 7.33333 17.875ZM12.8333 12.375V7.79167C12.8333 4.9775 11.3392 2.62167 8.70833 1.99833V1.375C8.70833 0.614167 8.09417 0 7.33333 0C6.5725 0 5.95833 0.614167 5.95833 1.375V1.99833C3.33667 2.62167 1.83333 4.96833 1.83333 7.79167V12.375L0 14.2083V15.125H14.6667V14.2083L12.8333 12.375ZM11 13.2917H3.66667V7.79167C3.66667 5.51833 5.05083 3.66667 7.33333 3.66667C9.61583 3.66667 11 5.51833 11 7.79167V13.2917Z" fill="#00636A"/>
</svg>
