<svg width="43" height="41" viewBox="0 0 43 41" fill="none" xmlns="http://www.w3.org/2000/svg">
<ellipse cx="21.5" cy="20.2034" rx="21.5" ry="20.2034" fill="#CCE0E2"/>
<path d="M21.5 14.2324C22.7084 14.2324 23.6875 15.1525 23.6875 16.2879C23.6875 17.4234 22.7084 18.3435 21.5 18.3435C20.2917 18.3435 19.3125 17.4234 19.3125 16.2879C19.3125 15.1525 20.2917 14.2324 21.5 14.2324ZM21.5 23.042C24.5938 23.042 27.8542 24.4711 27.8542 25.0975V26.1743H15.1459V25.0975C15.1459 24.4711 18.4063 23.042 21.5 23.042ZM21.5 12.3726C19.1979 12.3726 17.3334 14.1247 17.3334 16.2879C17.3334 18.4512 19.1979 20.2033 21.5 20.2033C23.8021 20.2033 25.6667 18.4512 25.6667 16.2879C25.6667 14.1247 23.8021 12.3726 21.5 12.3726ZM21.5 21.1822C18.7188 21.1822 13.1667 22.4938 13.1667 25.0975V28.0341H29.8334V25.0975C29.8334 22.4938 24.2813 21.1822 21.5 21.1822Z" fill="#00636A"/>
</svg>
