<svg width="43" height="43" viewBox="0 0 43 43" fill="none" xmlns="http://www.w3.org/2000/svg">
<circle cx="21.5" cy="21.5" r="21.5" fill="#CCE0E2"/>
<path d="M21 22.2132C20.0833 22.2132 19.3333 21.4632 19.3333 20.5465C19.3333 19.6299 20.0833 18.8799 21 18.8799C21.9166 18.8799 22.6666 19.6299 22.6666 20.5465C22.6666 21.4632 21.9166 22.2132 21 22.2132ZM26 20.7132C26 17.6882 23.7916 15.5465 21 15.5465C18.2083 15.5465 16 17.6882 16 20.7132C16 22.6632 17.625 25.2465 21 28.3299C24.375 25.2465 26 22.6632 26 20.7132ZM21 13.8799C24.5 13.8799 27.6666 16.5632 27.6666 20.7132C27.6666 23.4799 25.4416 26.7549 21 30.5465C16.5583 26.7549 14.3333 23.4799 14.3333 20.7132C14.3333 16.5632 17.5 13.8799 21 13.8799Z" fill="#00636A"/>
</svg>
