<svg width="26" height="26" viewBox="0 0 26 26" fill="none" xmlns="http://www.w3.org/2000/svg">
<path d="M13 23.5625C14.1916 23.5625 15.1666 22.5875 15.1666 21.3958H10.8333C10.8333 22.5875 11.8083 23.5625 13 23.5625ZM19.5 17.0625V11.6458C19.5 8.32 17.7341 5.53583 14.625 4.79917V4.0625C14.625 3.16333 13.8991 2.4375 13 2.4375C12.1008 2.4375 11.375 3.16333 11.375 4.0625V4.79917C8.27665 5.53583 6.49998 8.30917 6.49998 11.6458V17.0625L4.33331 19.2292V20.3125H21.6666V19.2292L19.5 17.0625ZM17.3333 18.1458H8.66665V11.6458C8.66665 8.95917 10.3025 6.77083 13 6.77083C15.6975 6.77083 17.3333 8.95917 17.3333 11.6458V18.1458Z" fill="#0072B7"/>
</svg>
