<svg width="43" height="43" viewBox="0 0 43 43" fill="none" xmlns="http://www.w3.org/2000/svg">
<circle cx="21.5" cy="21.5" r="21.5" fill="#CCE0E2"/>
<path d="M26.4444 15.3153H25.6667V13.7153H24.1111V15.3153H17.8889V13.7153H16.3333V15.3153H15.5556C14.6922 15.3153 14.0078 16.0353 14.0078 16.9153L14 28.1153C14 28.9953 14.6922 29.7153 15.5556 29.7153H26.4444C27.3 29.7153 28 28.9953 28 28.1153V16.9153C28 16.0353 27.3 15.3153 26.4444 15.3153ZM26.4444 28.1153H15.5556V20.1153H26.4444V28.1153ZM26.4444 18.5153H15.5556V16.9153H26.4444V18.5153ZM18.6667 23.3153H17.1111V21.7153H18.6667V23.3153ZM21.7778 23.3153H20.2222V21.7153H21.7778V23.3153ZM24.8889 23.3153H23.3333V21.7153H24.8889V23.3153ZM18.6667 26.5153H17.1111V24.9153H18.6667V26.5153ZM21.7778 26.5153H20.2222V24.9153H21.7778V26.5153ZM24.8889 26.5153H23.3333V24.9153H24.8889V26.5153Z" fill="#00636A"/>
</svg>
