<svg width="43" height="43" viewBox="0 0 43 43" fill="none" xmlns="http://www.w3.org/2000/svg">
<circle cx="21.5" cy="21.5" r="21.5" fill="#CCE0E2"/>
<path d="M21.5 14.8571C22.7084 14.8571 23.6875 15.8363 23.6875 17.0446C23.6875 18.2529 22.7084 19.2321 21.5 19.2321C20.2917 19.2321 19.3125 18.2529 19.3125 17.0446C19.3125 15.8363 20.2917 14.8571 21.5 14.8571ZM21.5 24.2321C24.5938 24.2321 27.8542 25.7529 27.8542 26.4196V27.5654H15.1459V26.4196C15.1459 25.7529 18.4063 24.2321 21.5 24.2321ZM21.5 12.8779C19.1979 12.8779 17.3334 14.7425 17.3334 17.0446C17.3334 19.3467 19.1979 21.2113 21.5 21.2113C23.8021 21.2113 25.6667 19.3467 25.6667 17.0446C25.6667 14.7425 23.8021 12.8779 21.5 12.8779ZM21.5 22.2529C18.7188 22.2529 13.1667 23.6488 13.1667 26.4196V29.5446H29.8334V26.4196C29.8334 23.6488 24.2813 22.2529 21.5 22.2529Z" fill="#00636A"/>
</svg>
