<svg width="43" height="43" viewBox="0 0 43 43" fill="none" xmlns="http://www.w3.org/2000/svg">
<circle cx="21.5" cy="21.5" r="21.5" fill="#CCE0E2"/>
<path d="M26.0591 22.4331C27.5433 23.4406 28.5833 24.8056 28.5833 26.6256V29.8756H32.9166V26.6256C32.9166 24.2639 29.0491 22.8664 26.0591 22.4331Z" fill="#00636A"/>
<path d="M24.25 21.2089C26.6441 21.2089 28.5833 19.2697 28.5833 16.8756C28.5833 14.4814 26.6441 12.5422 24.25 12.5422C23.7408 12.5422 23.2641 12.6506 22.8091 12.8022C23.7083 13.9181 24.25 15.3372 24.25 16.8756C24.25 18.4139 23.7083 19.8331 22.8091 20.9489C23.2641 21.1006 23.7408 21.2089 24.25 21.2089Z" fill="#00636A"/>
<path d="M17.75 21.2089C20.1441 21.2089 22.0833 19.2697 22.0833 16.8756C22.0833 14.4814 20.1441 12.5422 17.75 12.5422C15.3558 12.5422 13.4166 14.4814 13.4166 16.8756C13.4166 19.2697 15.3558 21.2089 17.75 21.2089ZM17.75 14.7089C18.9416 14.7089 19.9166 15.6839 19.9166 16.8756C19.9166 18.0672 18.9416 19.0422 17.75 19.0422C16.5583 19.0422 15.5833 18.0672 15.5833 16.8756C15.5833 15.6839 16.5583 14.7089 17.75 14.7089Z" fill="#00636A"/>
<path d="M17.75 22.2922C14.8575 22.2922 9.08331 23.7439 9.08331 26.6256V29.8756H26.4166V26.6256C26.4166 23.7439 20.6425 22.2922 17.75 22.2922ZM24.25 27.7089H11.25V26.6364C11.4666 25.8564 14.825 24.4589 17.75 24.4589C20.675 24.4589 24.0333 25.8564 24.25 26.6256V27.7089Z" fill="#00636A"/>
</svg>
