<svg width="17" height="17" viewBox="0 0 17 17" fill="none" xmlns="http://www.w3.org/2000/svg">
<g clip-path="url(#clip0_17_162)">
<path d="M1.6701 0.139406C1.71327 0.219095 2.51014 1.64683 3.43651 3.31695C4.92401 5.99644 5.11327 6.35503 5.06346 6.38492C4.99042 6.42476 4.60858 6.74019 4.41932 6.91949C4.00096 7.31128 3.48964 8.02183 3.22069 8.58296C2.13495 10.8408 2.58651 13.5003 4.35292 15.2701C6.25878 17.1759 9.21053 17.5445 11.5049 16.1666C12.1424 15.7847 12.8529 15.124 13.2879 14.5097C14.0549 13.4306 14.4467 12.0128 14.3404 10.6914C14.2773 9.88453 14.108 9.28023 13.7295 8.51656C13.3045 7.65328 12.7101 6.95601 11.89 6.35503C11.8801 6.34839 15.2402 0.265579 15.3598 0.073L15.4096 -4.57764e-05L12.7599 0.0065937L10.1137 0.0165558L9.31346 1.45425C8.87518 2.24117 8.50663 2.88531 8.49335 2.88199C8.47674 2.87534 8.11151 2.22788 7.67655 1.44429L6.88632 0.0165558L4.23671 0.0065937L1.5871 -4.57764e-05L1.6701 0.139406ZM7.45409 3.09449C8.09491 4.24663 8.61952 5.20953 8.62616 5.22945C8.6328 5.25933 8.50331 5.27593 8.17792 5.28921C7.48397 5.32242 6.77674 5.48511 6.15253 5.7607C6.05624 5.80386 5.97323 5.83042 5.96327 5.81714C5.95663 5.80386 5.35565 4.72476 4.63182 3.41988C3.908 2.11499 3.30702 1.03589 3.29706 1.01929C3.29042 1.00601 3.96112 0.996048 4.78788 0.996048H6.29198L7.45409 3.09449ZM13.6531 1.1023C13.6166 1.16206 13.009 2.25445 12.3051 3.52613L11.0201 5.84038L10.8308 5.75406C10.7279 5.70757 10.4723 5.6146 10.2631 5.5482L9.88456 5.42535L9.47616 4.68824L9.06444 3.95113L9.88788 2.47359L10.708 0.996048H12.2121H13.7195L13.6531 1.1023ZM9.56249 6.38492C10.4623 6.60074 11.1928 6.99253 11.8435 7.61675C12.4346 8.18121 12.8596 8.84195 13.1086 9.58238C14.0383 12.3548 12.3416 15.2933 9.45292 15.9109C8.96151 16.0138 8.03182 16.0138 7.54706 15.9109C4.92401 15.3431 3.26053 12.9093 3.70546 10.2929C4.05077 8.27417 5.68436 6.66382 7.73632 6.32515C8.18788 6.24878 9.12089 6.28199 9.56249 6.38492Z" fill="#D35746"/>
<path d="M7.75291 7.33787C6.27869 7.6367 5.11658 8.73572 4.74803 10.1767C4.37615 11.6277 4.89744 13.1982 6.05291 14.1279C6.72029 14.6658 7.48729 14.958 8.31737 14.9978C10.3926 15.0908 12.1523 13.5535 12.3482 11.475C12.5142 9.72185 11.4152 8.03513 9.74178 7.474C9.1242 7.26482 8.36053 7.21502 7.75291 7.33787ZM9.33006 8.38377C10.1535 8.64939 10.7545 9.17732 11.1097 9.94763C11.4418 10.6648 11.4484 11.5845 11.1297 12.2951C10.5519 13.5668 9.15408 14.2574 7.81268 13.9287C7.55037 13.8623 7.11209 13.6664 6.88299 13.5103C6.32186 13.1285 5.8869 12.5076 5.7076 11.8369C5.60799 11.4617 5.60799 10.8176 5.7076 10.4424C5.96658 9.46619 6.67049 8.71248 7.60682 8.40369C7.96209 8.28748 8.0949 8.27088 8.58299 8.28084C8.98143 8.2908 9.08768 8.30408 9.33006 8.38377Z" fill="#D35746"/>
</g>
<defs>
<clipPath id="clip0_17_162">
<rect width="17" height="17" fill="white"/>
</clipPath>
</defs>
</svg>
