<svg width="20" height="19" viewBox="0 0 20 19" fill="none" xmlns="http://www.w3.org/2000/svg">
<g clip-path="url(#clip0_15_70)">
<path d="M11.6373 1.87773C11.5406 1.90742 11.3062 2.0373 11.1164 2.16719C9.60969 3.19141 7.28818 4.34922 5.32754 5.05801L4.89225 5.21387L2.82744 5.23242C0.773792 5.25098 0.762631 5.25098 0.606375 5.33633C0.390593 5.44766 0.193413 5.65547 0.0966827 5.85957C0.0185547 6.03027 0.0185547 6.05254 0.0185547 8.90625V11.7822L0.119005 11.9715C0.238057 12.1941 0.431517 12.376 0.665901 12.4799C0.796114 12.5355 0.941209 12.5615 1.25372 12.5727L1.67412 12.5875L1.68156 14.699C1.69273 16.7697 1.69273 16.8068 1.77085 16.9107C1.81178 16.9664 1.90479 17.0518 1.97175 17.0963C2.09081 17.1779 2.12429 17.1816 2.93533 17.1816C3.87287 17.1816 4.05517 17.152 4.44209 16.9479C4.72112 16.7994 5.04479 16.4877 5.20104 16.2131C5.44287 15.7863 5.46891 15.5822 5.46891 14.1127V12.799L5.55448 12.8213C6.04185 12.9697 7.34398 13.5486 8.48242 14.1201C9.49436 14.6322 10.1864 15.0256 10.9379 15.5154C11.6113 15.9533 11.868 16.0387 12.2921 15.9607C12.7385 15.8791 13.1403 15.5822 13.3412 15.1814L13.4491 14.9736L13.4677 13.0477L13.4863 11.1254L13.784 11.0252C14.9224 10.6393 15.5511 9.48887 15.2535 8.33105C15.0638 7.58887 14.476 6.97285 13.7542 6.75762L13.4677 6.67227V4.82793C13.4677 2.80176 13.4677 2.79434 13.2408 2.44551C12.9208 1.94824 12.2177 1.69961 11.6373 1.87773ZM12.214 3.07266C12.2735 3.13574 12.2772 3.58477 12.2698 8.92852L12.2586 14.7139L12.1544 14.7621C12.0577 14.8104 12.0354 14.8066 11.8866 14.7064C10.6812 13.9309 9.84036 13.4559 8.61263 12.8547C7.66766 12.3945 6.71524 11.9826 5.96372 11.708L5.46891 11.5299V8.89141V6.25293L5.62889 6.20469C7.08728 5.75195 9.92593 4.36406 11.4885 3.33984C11.7712 3.15801 12.0317 3.00586 12.0763 3.00586C12.1172 3.00586 12.1805 3.03555 12.214 3.07266ZM4.27839 8.90625V11.3926H2.73443H1.19047V8.90625V6.41992H2.73443H4.27839V8.90625ZM13.7356 8.06387C13.9625 8.23828 14.1374 8.5834 14.1374 8.86543C14.1374 9.15117 14.0518 9.38867 13.8695 9.59277C13.743 9.7375 13.557 9.87109 13.4863 9.87109C13.4752 9.87109 13.4677 9.43691 13.4677 8.90625C13.4677 7.82266 13.4566 7.85234 13.7356 8.06387ZM4.27095 14.0162L4.25979 15.4561L4.1705 15.6119C4.11841 15.701 4.01424 15.816 3.93239 15.8717C3.79102 15.9682 3.75382 15.9756 3.32225 15.9867L2.86465 16.0016V14.2908V12.5801H3.57152H4.28211L4.27095 14.0162Z" fill="#00636A"/>
<path d="M16.4218 4.11912C16.3325 4.16365 15.9493 4.51619 15.4693 5.00232C14.6099 5.86697 14.543 5.95603 14.5988 6.24919C14.6285 6.40134 14.7699 6.58318 14.9224 6.66111C15.0564 6.73162 15.3019 6.73162 15.4545 6.66111C15.633 6.57576 17.2142 4.97634 17.244 4.85017C17.2849 4.6906 17.244 4.40115 17.1658 4.29353C17.0803 4.17107 16.831 4.0449 16.6822 4.0449C16.6227 4.0449 16.5073 4.0783 16.4218 4.11912Z" fill="#00636A"/>
<path d="M15.9976 8.39414C15.7893 8.53887 15.7186 8.66504 15.7186 8.89883C15.7186 9.15859 15.8228 9.32559 16.0497 9.42949C16.1874 9.49258 16.3101 9.5 17.3742 9.5C18.52 9.5 18.5535 9.49629 18.7135 9.41465C18.9404 9.30332 19.0558 9.09922 19.0372 8.85801C19.0186 8.65762 18.9367 8.52031 18.7507 8.39414C18.6279 8.3125 18.6131 8.3125 17.3742 8.3125C16.1353 8.3125 16.1204 8.3125 15.9976 8.39414Z" fill="#00636A"/>
<path d="M14.9299 11.1365C14.7625 11.2182 14.636 11.3852 14.5988 11.5707C14.5467 11.8193 14.6285 11.927 15.4917 12.7953C15.9418 13.2518 16.3585 13.6488 16.4143 13.6785C16.4701 13.7082 16.5966 13.7305 16.6933 13.7305C17.0282 13.7305 17.2626 13.4967 17.2626 13.1627C17.2626 13.0662 17.2402 12.94 17.2105 12.8844C17.1807 12.8287 16.7901 12.4205 16.3436 11.9789C15.3763 11.0178 15.2833 10.9621 14.9299 11.1365Z" fill="#00636A"/>
</g>
<defs>
<clipPath id="clip0_15_70">
<rect width="19.0483" height="19" fill="white"/>
</clipPath>
</defs>
</svg>
