<svg width="43" height="41" viewBox="0 0 43 41" fill="none" xmlns="http://www.w3.org/2000/svg">
<ellipse cx="21.5" cy="20.2034" rx="21.5" ry="20.2034" fill="#CCE0E2"/>
<path d="M26.4444 14.6593H25.6667V13.1558H24.1111V14.6593H17.8889V13.1558H16.3333V14.6593H15.5556C14.6922 14.6593 14.0078 15.3358 14.0078 16.1628L14 26.6873C14 27.5142 14.6922 28.1908 15.5556 28.1908H26.4444C27.3 28.1908 28 27.5142 28 26.6873V16.1628C28 15.3358 27.3 14.6593 26.4444 14.6593ZM26.4444 26.6873H15.5556V19.1698H26.4444V26.6873ZM26.4444 17.6663H15.5556V16.1628H26.4444V17.6663ZM18.6667 22.1768H17.1111V20.6733H18.6667V22.1768ZM21.7778 22.1768H20.2222V20.6733H21.7778V22.1768ZM24.8889 22.1768H23.3333V20.6733H24.8889V22.1768ZM18.6667 25.1838H17.1111V23.6803H18.6667V25.1838ZM21.7778 25.1838H20.2222V23.6803H21.7778V25.1838ZM24.8889 25.1838H23.3333V23.6803H24.8889V25.1838Z" fill="#00636A"/>
</svg>
