<svg width="14" height="14" viewBox="0 0 14 14" fill="none" xmlns="http://www.w3.org/2000/svg">
<g clip-path="url(#clip0_17_189)">
<path d="M1.80742 0.0410156C1.39727 0.13125 1.11289 0.267969 0.814844 0.519531C0.494922 0.784766 0.243359 1.16758 0.117578 1.57227L0.0410156 1.81836V7V12.1816L0.117578 12.4277C0.336328 13.1359 0.891406 13.691 1.59961 13.9098L1.8457 13.9863H4.96289H8.08008L8.32617 13.9098C9.03438 13.691 9.59219 13.1332 9.8082 12.4277C9.88203 12.1816 9.88203 12.1789 9.88477 11.3613C9.88477 10.5438 9.88477 10.541 9.81914 10.4371C9.78359 10.3797 9.7043 10.3004 9.64414 10.2594C9.55117 10.1965 9.50195 10.1855 9.35156 10.1855C9.20117 10.1855 9.15195 10.1965 9.05898 10.2594C8.99883 10.3004 8.91953 10.3797 8.88398 10.4371C8.82109 10.5383 8.81836 10.5629 8.80195 11.293C8.78828 11.9902 8.78281 12.0559 8.72539 12.2035C8.60781 12.5043 8.36445 12.7367 8.05547 12.8434C7.92422 12.8898 7.73281 12.8926 4.94922 12.8926H1.98242L1.82383 12.8297C1.52031 12.7066 1.29062 12.466 1.18398 12.157C1.1375 12.0258 1.13477 11.7578 1.13477 7C1.13477 2.24219 1.1375 1.97422 1.18398 1.84297C1.29062 1.53398 1.52031 1.29336 1.82383 1.17031L1.98242 1.10742H4.94922C7.73281 1.10742 7.92422 1.11016 8.05547 1.15664C8.36445 1.26328 8.60781 1.4957 8.72539 1.79648C8.78281 1.94414 8.78828 2.00977 8.80195 2.70977L8.81836 3.46445L8.89219 3.57383C9.0043 3.74336 9.13828 3.81445 9.35156 3.81445C9.56484 3.81445 9.69883 3.74336 9.81094 3.57383L9.88477 3.46172V2.64141C9.88203 1.82109 9.88203 1.81836 9.8082 1.57227C9.59219 0.866797 9.03438 0.308985 8.32617 0.0902348L8.08008 0.0136719L5.03125 0.00820351C2.50469 0.00546932 1.95234 0.0109377 1.80742 0.0410156Z" fill="#F5222D"/>
<path d="M11.7988 4.72775C11.5582 4.83985 11.4352 5.08595 11.4898 5.34845C11.5145 5.47423 11.5527 5.51798 12.0121 5.98009L12.507 6.48048L9.13008 6.48595L5.75312 6.49415L5.64102 6.56798C5.46875 6.68009 5.40039 6.81407 5.40039 7.03009C5.40039 7.17775 5.41406 7.22696 5.47422 7.31993C5.51523 7.38009 5.59453 7.45939 5.65195 7.49493L5.75586 7.56056L9.13008 7.56876L12.507 7.57423L12.0121 8.07462C11.5527 8.53673 11.5145 8.58048 11.4898 8.70626C11.3969 9.14923 11.8344 9.5129 12.2363 9.32696C12.3074 9.29415 12.5973 9.02071 13.073 8.5422C13.7484 7.8586 13.8059 7.79298 13.8934 7.60157C13.9836 7.39923 13.9863 7.39103 13.9863 7.02735C13.9863 6.66368 13.9836 6.65548 13.8934 6.45314C13.8059 6.26173 13.7484 6.1961 13.073 5.51251C12.5973 5.034 12.3074 4.76056 12.2363 4.72775C12.0969 4.66212 11.9383 4.66212 11.7988 4.72775Z" fill="#F5222D"/>
</g>
<defs>
<clipPath id="clip0_17_189">
<rect width="14" height="14" fill="white"/>
</clipPath>
</defs>
</svg>
