<svg width="99" height="99" viewBox="0 0 99 99" fill="none" xmlns="http://www.w3.org/2000/svg">
<circle cx="49.5" cy="49.5" r="49.5" fill="#338289"/>
<path d="M50.16 34.056C53.2224 34.056 55.704 36.5376 55.704 39.6C55.704 42.6624 53.2224 45.144 50.16 45.144C47.0976 45.144 44.616 42.6624 44.616 39.6C44.616 36.5376 47.0976 34.056 50.16 34.056ZM50.16 57.816C58.0008 57.816 66.264 61.6704 66.264 63.36V66.264H34.056V63.36C34.056 61.6704 42.3192 57.816 50.16 57.816ZM50.16 29.04C44.3256 29.04 39.6 33.7656 39.6 39.6C39.6 45.4344 44.3256 50.16 50.16 50.16C55.9944 50.16 60.72 45.4344 60.72 39.6C60.72 33.7656 55.9944 29.04 50.16 29.04ZM50.16 52.8C43.1112 52.8 29.04 56.3376 29.04 63.36V71.28H71.28V63.36C71.28 56.3376 57.2088 52.8 50.16 52.8Z" fill="#FAF6F4"/>
</svg>
