<svg width="43" height="41" viewBox="0 0 43 41" fill="none" xmlns="http://www.w3.org/2000/svg">
<ellipse cx="21.5" cy="20.2034" rx="21.5" ry="20.2034" fill="#CCE0E2"/>
<path d="M21 20.6733C20.0833 20.6733 19.3333 19.9685 19.3333 19.1071C19.3333 18.2458 20.0833 17.541 21 17.541C21.9166 17.541 22.6666 18.2458 22.6666 19.1071C22.6666 19.9685 21.9166 20.6733 21 20.6733ZM26 19.2638C26 16.4212 23.7916 14.4087 21 14.4087C18.2083 14.4087 16 16.4212 16 19.2638C16 21.0962 17.625 23.5237 21 26.4211C24.375 23.5237 26 21.0962 26 19.2638ZM21 12.8425C24.5 12.8425 27.6666 15.364 27.6666 19.2638C27.6666 21.8636 25.4416 24.9411 21 28.5041C16.5583 24.9411 14.3333 21.8636 14.3333 19.2638C14.3333 15.364 17.5 12.8425 21 12.8425Z" fill="#00636A"/>
</svg>
