<svg width="19" height="19" viewBox="0 0 19 19" fill="none" xmlns="http://www.w3.org/2000/svg">
<path d="M16.8889 1.9H15.8333V0H13.7222V1.9H5.27778V0H3.16667V1.9H2.11111C0.939444 1.9 0.0105555 2.755 0.0105555 3.8L0 17.1C0 18.145 0.939444 19 2.11111 19H16.8889C18.05 19 19 18.145 19 17.1V3.8C19 2.755 18.05 1.9 16.8889 1.9ZM16.8889 17.1H2.11111V7.6H16.8889V17.1ZM16.8889 5.7H2.11111V3.8H16.8889V5.7ZM6.33333 11.4H4.22222V9.5H6.33333V11.4ZM10.5556 11.4H8.44444V9.5H10.5556V11.4ZM14.7778 11.4H12.6667V9.5H14.7778V11.4ZM6.33333 15.2H4.22222V13.3H6.33333V15.2ZM10.5556 15.2H8.44444V13.3H10.5556V15.2ZM14.7778 15.2H12.6667V13.3H14.7778V15.2Z" fill="#00636A"/>
</svg>
