<svg width="17" height="17" viewBox="0 0 17 17" fill="none" xmlns="http://www.w3.org/2000/svg">
<g clip-path="url(#clip0_17_170)">
<path d="M7.57363 0.0531254C7.30801 0.122852 7.07891 0.258986 6.86973 0.464844C6.5543 0.773634 6.4082 1.14883 6.4082 1.62695V1.91582L6.11934 2.02539C5.95664 2.08516 5.71758 2.18477 5.58145 2.24785L5.33242 2.36074L5.14981 2.17813C4.68496 1.72656 4.13711 1.56387 3.56934 1.70996C3.23066 1.79961 3.03809 1.93906 2.48691 2.48691C1.93906 3.03809 1.79961 3.23066 1.70996 3.56934C1.56387 4.13711 1.72656 4.68496 2.17813 5.14649L2.35742 5.33242L2.21133 5.66113C2.13164 5.84375 2.03203 6.08613 1.99219 6.19902L1.91582 6.4082H1.62695C1.14883 6.4082 0.776953 6.5543 0.461523 6.86973C0.0763672 7.2582 0 7.52383 0 8.5C0 9.47949 0.0730469 9.73184 0.464844 10.1303C0.773633 10.4457 1.14883 10.5918 1.62695 10.5918H1.91582L2.02539 10.8807C2.08516 11.0434 2.18477 11.2824 2.24785 11.4186L2.36074 11.6676L2.17813 11.8502C2.07852 11.9531 1.95234 12.1092 1.8959 12.2021C1.59707 12.6803 1.58379 13.3111 1.86602 13.8092C2.00547 14.0582 2.9418 14.9945 3.19082 15.134C3.6623 15.3996 4.25 15.4063 4.72813 15.1473C4.82109 15.0975 4.99375 14.9646 5.1166 14.8518L5.33574 14.6426L5.66445 14.7854C5.84707 14.865 6.08613 14.9646 6.20234 15.0078L6.4082 15.0809V15.3697C6.4082 15.8512 6.5543 16.2264 6.86973 16.5352C7.26816 16.927 7.52051 17 8.5 17C9.47617 17 9.7418 16.9236 10.1303 16.5385C10.4457 16.223 10.5918 15.8512 10.5918 15.3697V15.0809L10.801 15.0078C10.9139 14.9646 11.1529 14.865 11.3355 14.7854L11.6643 14.6426L11.8834 14.8518C12.0063 14.9646 12.1789 15.0975 12.2719 15.1473C12.74 15.3996 13.3211 15.3996 13.7926 15.1473C14.015 15.0277 14.9879 14.0582 15.1307 13.8125C15.3996 13.351 15.4062 12.7533 15.1473 12.2719C15.0975 12.1789 14.9646 12.0063 14.8518 11.8834L14.6426 11.6643L14.7854 11.3355C14.865 11.1529 14.9646 10.9139 15.0078 10.7977L15.0809 10.5918H15.3697C15.8611 10.5918 16.2197 10.449 16.5352 10.1303C16.927 9.73184 17 9.47949 17 8.5C17 7.52051 16.927 7.26816 16.5352 6.86973C16.2197 6.55098 15.8611 6.4082 15.3697 6.4082H15.0809L15.0078 6.19902C14.9646 6.08613 14.865 5.84707 14.7854 5.66445L14.6426 5.33574L14.8518 5.1166C14.9646 4.99375 15.0975 4.82109 15.1473 4.72813C15.4062 4.25 15.3996 3.6623 15.134 3.19082C14.9945 2.94512 14.025 1.97559 13.7926 1.85273C13.2945 1.58379 12.6703 1.60039 12.2021 1.8959C12.1125 1.95234 11.9531 2.07852 11.8502 2.17813L11.6676 2.36074L11.4186 2.24785C11.2824 2.18477 11.0434 2.08516 10.884 2.02539L10.5918 1.91582V1.62695C10.5918 1.14883 10.4457 0.776955 10.1303 0.461525C9.92109 0.252344 9.69531 0.126173 9.40645 0.0498047C9.14414 -0.0199203 7.83262 -0.0166016 7.57363 0.0531254ZM9.28691 1.06582C9.3832 1.11231 9.45957 1.18203 9.5127 1.275C9.58906 1.40781 9.5957 1.44766 9.5957 1.88594C9.5957 2.41055 9.63555 2.57988 9.7916 2.68281C9.83809 2.71602 10.0738 2.80567 10.3096 2.88535C10.5486 2.96172 10.9504 3.13105 11.2061 3.25723C11.4617 3.3834 11.7041 3.48633 11.7473 3.48633C11.9066 3.48633 12.076 3.37344 12.398 3.05469C12.7434 2.71602 12.8396 2.65625 13.0322 2.65625C13.2314 2.65625 13.3244 2.71934 13.7926 3.18086C14.2607 3.6457 14.3438 3.76191 14.3438 3.96445C14.3438 4.16035 14.284 4.25664 13.9453 4.60195C13.6232 4.92734 13.5137 5.09336 13.5137 5.25605C13.5137 5.29922 13.6166 5.54492 13.7461 5.80059C13.8723 6.05957 14.0383 6.46133 14.1146 6.69375C14.1943 6.92949 14.284 7.16191 14.3172 7.2084C14.4201 7.36445 14.5895 7.4043 15.1141 7.4043C15.5523 7.4043 15.5922 7.41094 15.725 7.4873C15.974 7.6334 16.0039 7.74629 16.0039 8.5C16.0039 9.25371 15.974 9.3666 15.725 9.5127C15.5922 9.58906 15.5523 9.5957 15.1141 9.5957C14.5895 9.5957 14.4201 9.63555 14.3172 9.7916C14.284 9.83809 14.1943 10.0705 14.1146 10.3063C14.0383 10.5387 13.8723 10.9404 13.7461 11.1994C13.6166 11.4551 13.5137 11.7008 13.5137 11.7439C13.5137 11.9066 13.6232 12.0727 13.9453 12.398C14.284 12.7434 14.3438 12.8396 14.3438 13.0322C14.3438 13.2314 14.2807 13.3211 13.8225 13.7859C13.351 14.2607 13.2348 14.3438 13.0389 14.3438C12.8396 14.3438 12.7467 14.284 12.398 13.9453C12.0727 13.6232 11.9066 13.5137 11.7406 13.5137C11.6975 13.5137 11.4518 13.6166 11.1994 13.7428C10.9471 13.8689 10.5486 14.0383 10.3096 14.1146C10.0738 14.1943 9.83809 14.284 9.7916 14.3172C9.63555 14.4201 9.5957 14.5895 9.5957 15.1141C9.5957 15.5523 9.58906 15.5922 9.5127 15.725C9.3666 15.974 9.25371 16.0039 8.5 16.0039C7.74629 16.0039 7.6334 15.974 7.4873 15.725C7.41094 15.5922 7.4043 15.5523 7.4043 15.1141C7.4043 14.5895 7.36445 14.4201 7.2084 14.3172C7.16191 14.284 6.92949 14.191 6.69043 14.1146C6.45469 14.035 6.04961 13.8689 5.79727 13.7428C5.5416 13.6166 5.29922 13.5137 5.25605 13.5137C5.09336 13.5137 4.92734 13.6232 4.60195 13.9453C4.25664 14.284 4.16035 14.3438 3.96445 14.3438C3.76191 14.3438 3.6457 14.2607 3.18086 13.7926C2.71934 13.3244 2.65625 13.2314 2.65625 13.0322C2.65625 12.8396 2.71602 12.7434 3.05469 12.398C3.37676 12.0727 3.48633 11.9066 3.48633 11.7439C3.48633 11.7008 3.3834 11.4551 3.25391 11.1994C3.12773 10.9404 2.96172 10.5387 2.88535 10.3063C2.80566 10.0705 2.71602 9.83809 2.68281 9.7916C2.57988 9.63555 2.41055 9.5957 1.88594 9.5957C1.44766 9.5957 1.40781 9.58906 1.275 9.5127C1.02598 9.3666 0.996094 9.25371 0.996094 8.5C0.996094 7.74629 1.02598 7.6334 1.275 7.4873C1.40781 7.41094 1.44766 7.4043 1.88594 7.4043C2.41055 7.4043 2.57988 7.36445 2.68281 7.2084C2.71602 7.16191 2.80898 6.92617 2.88535 6.69043C2.96172 6.45137 3.13105 6.04961 3.25723 5.79727C3.3834 5.5416 3.48633 5.29922 3.48633 5.25605C3.48633 5.09336 3.37676 4.92734 3.05469 4.60195C2.71602 4.25664 2.65625 4.16035 2.65625 3.96445C2.65625 3.76191 2.73926 3.6457 3.20742 3.18086C3.67559 2.71934 3.76855 2.65625 3.96777 2.65625C4.16035 2.65625 4.25664 2.71602 4.60195 3.05469C4.92734 3.37676 5.09336 3.48633 5.25605 3.48633C5.29922 3.48633 5.54492 3.3834 5.80059 3.25391C6.05957 3.12774 6.46133 2.96172 6.69375 2.88535C6.92949 2.80567 7.16191 2.71602 7.2084 2.68281C7.36445 2.57988 7.4043 2.41055 7.4043 1.88594C7.4043 1.44766 7.41094 1.40781 7.4873 1.27832C7.54043 1.18535 7.6168 1.11231 7.70977 1.06582C7.83926 1.00274 7.90898 0.996094 8.49668 0.996094C9.08438 0.996094 9.15742 1.00274 9.28691 1.06582Z" fill="#3E3F41"/>
<path d="M7.75291 4.88088C6.37166 5.17971 5.28923 6.20237 4.92068 7.5637C4.84099 7.85588 4.83435 7.94221 4.83435 8.50002C4.83435 9.05784 4.84099 9.14417 4.92068 9.43635C5.26931 10.7213 6.27869 11.7307 7.56365 12.0793C7.85584 12.159 7.94216 12.1656 8.49998 12.1656C9.05779 12.1656 9.14412 12.159 9.4363 12.0793C10.7213 11.7307 11.7306 10.7213 12.0793 9.43635C12.159 9.14417 12.1656 9.05784 12.1656 8.50002C12.1656 7.94221 12.159 7.85588 12.0793 7.5637C11.7306 6.27874 10.7146 5.2594 9.44627 4.92737C8.98474 4.80452 8.19783 4.78459 7.75291 4.88088ZM9.12087 5.87698C10.3494 6.17249 11.1894 7.23499 11.1894 8.50002C11.1894 10.0074 10.0074 11.1895 8.49998 11.1895C7.75623 11.1895 7.12205 10.9272 6.59412 10.4059C5.69431 9.51272 5.5449 8.08831 6.24216 7.02913C6.624 6.44475 7.25154 6.00647 7.9156 5.86038C8.23103 5.79397 8.7988 5.80061 9.12087 5.87698Z" fill="#3E3F41"/>
</g>
<defs>
<clipPath id="clip0_17_170">
<rect width="17" height="17" fill="white"/>
</clipPath>
</defs>
</svg>
