<svg width="19" height="19" viewBox="0 0 19 19" fill="none" xmlns="http://www.w3.org/2000/svg">
<path d="M13.1971 10.3945C14.2817 11.1308 15.0417 12.1283 15.0417 13.4583V15.8333H18.2083V13.4583C18.2083 11.7325 15.3821 10.7112 13.1971 10.3945Z" fill="#00636A"/>
<path d="M11.875 9.49996C13.6246 9.49996 15.0417 8.08288 15.0417 6.33329C15.0417 4.58371 13.6246 3.16663 11.875 3.16663C11.5029 3.16663 11.1546 3.24579 10.8221 3.35663C11.4792 4.17204 11.875 5.20913 11.875 6.33329C11.875 7.45746 11.4792 8.49454 10.8221 9.30996C11.1546 9.42079 11.5029 9.49996 11.875 9.49996Z" fill="#00636A"/>
<path d="M7.125 9.49996C8.87459 9.49996 10.2917 8.08288 10.2917 6.33329C10.2917 4.58371 8.87459 3.16663 7.125 3.16663C5.37542 3.16663 3.95834 4.58371 3.95834 6.33329C3.95834 8.08288 5.37542 9.49996 7.125 9.49996ZM7.125 4.74996C7.99584 4.74996 8.70834 5.46246 8.70834 6.33329C8.70834 7.20413 7.99584 7.91663 7.125 7.91663C6.25417 7.91663 5.54167 7.20413 5.54167 6.33329C5.54167 5.46246 6.25417 4.74996 7.125 4.74996Z" fill="#00636A"/>
<path d="M7.125 10.2916C5.01125 10.2916 0.791672 11.3525 0.791672 13.4583V15.8333H13.4583V13.4583C13.4583 11.3525 9.23875 10.2916 7.125 10.2916ZM11.875 14.25H2.37501V13.4662C2.53334 12.8962 4.9875 11.875 7.125 11.875C9.2625 11.875 11.7167 12.8962 11.875 13.4583V14.25Z" fill="#00636A"/>
</svg>
