<svg width="17" height="17" viewBox="0 0 17 17" fill="none" xmlns="http://www.w3.org/2000/svg">
<g clip-path="url(#clip0_68_231)">
<path d="M1.6701 0.139284C1.71327 0.218973 2.51014 1.64671 3.43651 3.31682C4.92401 5.99632 5.11327 6.35491 5.06346 6.38479C4.99042 6.42464 4.60858 6.74007 4.41932 6.91936C4.00096 7.31116 3.48964 8.02171 3.22069 8.58284C2.13495 10.8407 2.58651 13.5002 4.35292 15.27C6.25878 17.1758 9.21053 17.5444 11.5049 16.1664C12.1424 15.7846 12.8529 15.1239 13.2879 14.5096C14.0549 13.4305 14.4467 12.0127 14.3404 10.6912C14.2773 9.8844 14.108 9.28011 13.7295 8.51643C13.3045 7.65315 12.7101 6.95589 11.89 6.35491C11.8801 6.34827 15.2402 0.265457 15.3598 0.0728779L15.4096 -0.000167847L12.7599 0.00647163L10.1137 0.0164337L9.31346 1.45413C8.87518 2.24104 8.50663 2.88518 8.49335 2.88186C8.47674 2.87522 8.11151 2.22776 7.67655 1.44417L6.88632 0.0164337L4.23671 0.00647163L1.5871 -0.000167847L1.6701 0.139284ZM7.45409 3.09436C8.09491 4.24651 8.61952 5.2094 8.62616 5.22933C8.6328 5.25921 8.50331 5.27581 8.17792 5.28909C7.48397 5.32229 6.77674 5.48499 6.15253 5.76058C6.05624 5.80374 5.97323 5.8303 5.96327 5.81702C5.95663 5.80374 5.35565 4.72464 4.63182 3.41975C3.908 2.11487 3.30702 1.03577 3.29706 1.01917C3.29042 1.00589 3.96112 0.995926 4.78788 0.995926H6.29198L7.45409 3.09436ZM13.6531 1.10218C13.6166 1.16194 13.009 2.25432 12.3051 3.526L11.0201 5.84026L10.8308 5.75393C10.7279 5.70745 10.4723 5.61448 10.2631 5.54808L9.88456 5.42522L9.47616 4.68811L9.06444 3.951L9.88788 2.47346L10.708 0.995926H12.2121H13.7195L13.6531 1.10218ZM9.56249 6.38479C10.4623 6.60061 11.1928 6.99241 11.8435 7.61663C12.4346 8.18108 12.8596 8.84183 13.1086 9.58226C14.0383 12.3547 12.3416 15.2932 9.45292 15.9108C8.96151 16.0137 8.03182 16.0137 7.54706 15.9108C4.92401 15.343 3.26053 12.9092 3.70546 10.2928C4.05077 8.27405 5.68436 6.6637 7.73632 6.32503C8.18788 6.24866 9.12089 6.28186 9.56249 6.38479Z" fill="#00636A"/>
<path d="M7.75291 7.3375C6.27869 7.63633 5.11658 8.73535 4.74803 10.1764C4.37615 11.6273 4.89744 13.1979 6.05291 14.1275C6.72029 14.6654 7.48729 14.9576 8.31737 14.9975C10.3926 15.0904 12.1523 13.5531 12.3482 11.4746C12.5142 9.72149 11.4152 8.03477 9.74178 7.47364C9.1242 7.26446 8.36053 7.21465 7.75291 7.3375ZM9.33006 8.3834C10.1535 8.64903 10.7545 9.17696 11.1097 9.94727C11.4418 10.6645 11.4484 11.5842 11.1297 12.2947C10.5519 13.5664 9.15408 14.257 7.81268 13.9283C7.55037 13.8619 7.11209 13.666 6.88299 13.51C6.32186 13.1281 5.8869 12.5072 5.7076 11.8365C5.60799 11.4613 5.60799 10.8172 5.7076 10.442C5.96658 9.46582 6.67049 8.71211 7.60682 8.40332C7.96209 8.28711 8.0949 8.27051 8.58299 8.28047C8.98143 8.29043 9.08768 8.30371 9.33006 8.3834Z" fill="#00636A"/>
</g>
<defs>
<clipPath id="clip0_68_231">
<rect width="17" height="17" fill="white"/>
</clipPath>
</defs>
</svg>
