<svg width="43" height="41" viewBox="0 0 43 41" fill="none" xmlns="http://www.w3.org/2000/svg">
<ellipse cx="21.5" cy="20.2034" rx="21.5" ry="20.2034" fill="#CCE0E2"/>
<path d="M26.0591 21.8236C27.5433 22.7704 28.5833 24.053 28.5833 25.7633V28.8173H32.9166V25.7633C32.9166 23.544 29.0491 22.2308 26.0591 21.8236Z" fill="#00636A"/>
<path d="M24.25 20.6733C26.6441 20.6733 28.5833 18.8511 28.5833 16.6013C28.5833 14.3515 26.6441 12.5293 24.25 12.5293C23.7408 12.5293 23.2641 12.6311 22.8091 12.7736C23.7083 13.8222 24.25 15.1557 24.25 16.6013C24.25 18.0469 23.7083 19.3804 22.8091 20.429C23.2641 20.5715 23.7408 20.6733 24.25 20.6733Z" fill="#00636A"/>
<path d="M17.75 20.6733C20.1441 20.6733 22.0833 18.8511 22.0833 16.6013C22.0833 14.3515 20.1441 12.5293 17.75 12.5293C15.3558 12.5293 13.4166 14.3515 13.4166 16.6013C13.4166 18.8511 15.3558 20.6733 17.75 20.6733ZM17.75 14.5653C18.9416 14.5653 19.9166 15.4815 19.9166 16.6013C19.9166 17.7211 18.9416 18.6373 17.75 18.6373C16.5583 18.6373 15.5833 17.7211 15.5833 16.6013C15.5833 15.4815 16.5583 14.5653 17.75 14.5653Z" fill="#00636A"/>
<path d="M17.75 21.6913C14.8575 21.6913 9.08331 23.0554 9.08331 25.7633V28.8173H26.4166V25.7633C26.4166 23.0554 20.6425 21.6913 17.75 21.6913ZM24.25 26.7813H11.25V25.7735C11.4666 25.0405 14.825 23.7273 17.75 23.7273C20.675 23.7273 24.0333 25.0405 24.25 25.7633V26.7813Z" fill="#00636A"/>
</svg>
