<svg width="10" height="10" viewBox="0 0 10 10" fill="none" xmlns="http://www.w3.org/2000/svg">
<g clip-path="url(#clip0_10_295)">
<path d="M4.99581 0.833374C2.69581 0.833374 0.833313 2.70004 0.833313 5.00004C0.833313 7.30004 2.69581 9.16671 4.99581 9.16671C7.29998 9.16671 9.16665 7.30004 9.16665 5.00004C9.16665 2.70004 7.29998 0.833374 4.99581 0.833374ZM4.99998 8.33337C3.15831 8.33337 1.66665 6.84171 1.66665 5.00004C1.66665 3.15837 3.15831 1.66671 4.99998 1.66671C6.84165 1.66671 8.33331 3.15837 8.33331 5.00004C8.33331 6.84171 6.84165 8.33337 4.99998 8.33337ZM5.20831 2.91671H4.58331V5.41671L6.77081 6.72921L7.08331 6.21671L5.20831 5.10421V2.91671Z" fill="#6E6F70"/>
</g>
<defs>
<clipPath id="clip0_10_295">
<rect width="10" height="10" fill="white"/>
</clipPath>
</defs>
</svg>
