<svg width="24" height="18" viewBox="0 0 24 18" fill="none" xmlns="http://www.w3.org/2000/svg">
<path d="M15.2727 9C17.6836 9 19.6364 6.98625 19.6364 4.5C19.6364 2.01375 17.6836 0 15.2727 0C12.8618 0 10.9091 2.01375 10.9091 4.5C10.9091 6.98625 12.8618 9 15.2727 9ZM15.2727 2.25C16.4727 2.25 17.4545 3.2625 17.4545 4.5C17.4545 5.7375 16.4727 6.75 15.2727 6.75C14.0727 6.75 13.0909 5.7375 13.0909 4.5C13.0909 3.2625 14.0727 2.25 15.2727 2.25ZM15.2727 11.25C12.36 11.25 6.54545 12.7575 6.54545 15.75V18H24V15.75C24 12.7575 18.1855 11.25 15.2727 11.25ZM8.72727 15.75C8.96727 14.94 12.3382 13.5 15.2727 13.5C18.2182 13.5 21.6 14.9513 21.8182 15.75H8.72727ZM5.45455 12.375V9H8.72727V6.75H5.45455V3.375H3.27273V6.75H0V9H3.27273V12.375H5.45455Z" fill="#D35746"/>
</svg>
